<svg width="30" height="30" viewBox="0 0 48 48" fill="none" xmlns="http://www.w3.org/2000/svg">
    <mask id="mask0_597_4" style="mask-type:luminance" maskUnits="userSpaceOnUse" x="2" y="3" width="45" height="42">
        <path d="M4.18902 22.173C4.16504 21.8968 4.19872 21.6187 4.28794 21.3563C4.37715 21.0939 4.51993 20.8528 4.70724 20.6485C4.89454 20.4442 5.12227 20.281 5.37598 20.1694C5.62969 20.0578 5.90383 20.0001 6.18102 20H10C10.5304 20 11.0392 20.2107 11.4142 20.5858C11.7893 20.9609 12 21.4696 12 22V41C12 41.5304 11.7893 42.0391 11.4142 42.4142C11.0392 42.7893 10.5304 43 10 43H7.83402C7.33344 43.0001 6.85103 42.8125 6.48204 42.4743C6.11305 42.136 5.88431 41.6717 5.84101 41.173L4.18902 22.173ZM18 21.375C18 20.539 18.52 19.791 19.275 19.435C20.924 18.657 23.733 17.094 25 14.981C26.633 12.257 26.941 7.33599 26.991 6.20899C26.998 6.05099 26.994 5.89299 27.015 5.73699C27.286 3.78399 31.055 6.06499 32.5 8.47699C33.285 9.78499 33.385 11.504 33.303 12.847C33.214 14.283 32.793 15.67 32.38 17.048L31.5 19.985H42.357C42.666 19.985 42.9708 20.0566 43.2475 20.1941C43.5242 20.3317 43.7653 20.5315 43.9518 20.7779C44.1383 21.0243 44.2652 21.3105 44.3225 21.6142C44.3798 21.9178 44.3659 22.2306 44.282 22.528L38.912 41.544C38.7935 41.9634 38.5412 42.3326 38.1935 42.5954C37.8458 42.8582 37.4218 43.0003 36.986 43H20C19.4696 43 18.9609 42.7893 18.5858 42.4142C18.2107 42.0391 18 41.5304 18 41V21.375Z"
              fill="white" stroke="white" stroke-width="4" stroke-linecap="round" stroke-linejoin="round"/>
    </mask>
    <g mask="url(#mask0_597_4)">
        <path d="M0 0H48V48H0V0Z" fill="#699BF7"/>
    </g>
</svg>
